<?xml version="1.0" standalone="no"?>
<!DOCTYPE svg PUBLIC "-//W3C//DTD SVG 20010904//EN"
 "http://www.w3.org/TR/2001/REC-SVG-20010904/DTD/svg10.dtd">
<svg version="1.0" xmlns="http://www.w3.org/2000/svg"
 width="500.000000pt" height="500.000000pt" viewBox="0 0 500.000000 500.000000"
 preserveAspectRatio="xMidYMid meet">
<metadata>
Created by potrace 1.14, written by Peter Selinger 2001-2017
</metadata>
<g transform="translate(0.000000,500.000000) scale(0.100000,-0.100000)"
fill="#000000" stroke="none">
<path d="M0 2500 l0 -2500 2500 0 2500 0 0 2500 0 2500 -2500 0 -2500 0 0
-2500z m4890 10 l0 -2380 -2380 0 -2380 0 0 2380 0 2380 2380 0 2380 0 0
-2380z"/>
<path d="M450 4359 l0 -210 23 6 c12 3 55 22 95 41 104 51 205 152 260 263 23
46 42 90 42 97 0 12 -38 14 -210 14 l-210 0 0 -211z"/>
<path d="M1190 4528 c-88 -349 -340 -604 -683 -692 l-52 -13 -3 -201 -2 -202
32 6 c176 31 350 94 477 170 346 210 570 540 636 937 l6 37 -200 0 -200 0 -11
-42z"/>
<path d="M1916 4543 c-3 -16 -8 -48 -11 -73 -30 -207 -136 -471 -266 -660
-241 -351 -609 -594 -1027 -680 -55 -11 -114 -20 -131 -20 l-31 0 0 -200 0
-200 33 0 c17 0 82 9 142 19 668 115 1210 526 1502 1138 88 186 158 428 181
626 l8 77 -197 0 -197 0 -6 -27z"/>
<path d="M2714 4503 c27 -266 130 -570 272 -810 267 -448 682 -767 1186 -912
111 -32 311 -71 365 -71 l33 0 0 200 0 200 -36 0 c-52 0 -252 46 -353 82 -378
132 -714 427 -899 787 -88 171 -128 292 -162 486 l-17 100 -198 3 -198 2 7
-67z"/>
<path d="M3432 4513 c37 -248 185 -534 369 -715 202 -200 439 -319 737 -372
l32 -6 -2 202 -3 201 -53 13 c-259 67 -486 248 -602 483 -39 77 -80 197 -80
232 0 18 -10 19 -203 19 l-204 0 9 -57z"/>
<path d="M4155 4548 c51 -173 220 -342 393 -393 l22 -6 0 210 0 211 -211 0
-210 0 6 -22z"/>
<path d="M2501 3938 c-122 -320 -269 -561 -498 -812 l-73 -80 0 -1298 0 -1298
585 0 585 0 0 1298 0 1298 -46 44 c-188 181 -384 483 -500 770 -40 99 -43 103
-53 78z"/>
<path d="M1515 2729 c-44 -28 -131 -76 -192 -107 l-113 -55 0 -1059 0 -1058
200 0 200 0 0 1165 c0 641 -3 1165 -7 1165 -5 -1 -44 -24 -88 -51z"/>
<path d="M3410 1615 l0 -1165 200 0 200 0 0 1060 0 1059 -75 35 c-42 19 -129
67 -195 106 -65 38 -121 70 -124 70 -4 0 -6 -524 -6 -1165z"/>
<path d="M869 2456 c-8 -9 -206 -44 -311 -56 l-108 -13 0 -968 0 -969 225 0
225 0 0 1005 c0 831 -2 1005 -13 1005 -8 0 -16 -2 -18 -4z"/>
<path d="M4130 1456 l0 -1006 220 0 220 0 0 968 0 969 -102 12 c-92 11 -254
40 -315 57 l-23 6 0 -1006z"/>
</g>
</svg>
